<?xml version="1.0" encoding="UTF-8" standalone="no"?>
<svg
   height="48"
   viewBox="0 -960 960 960"
   width="48"
   version="1.1"
   id="svg1590"
   sodipodi:docname="sticky_note_dark.svg"
   inkscape:version="1.1.2 (0a00cf5339, 2022-02-04)"
   xmlns:inkscape="http://www.inkscape.org/namespaces/inkscape"
   xmlns:sodipodi="http://sodipodi.sourceforge.net/DTD/sodipodi-0.dtd"
   xmlns="http://www.w3.org/2000/svg"
   xmlns:svg="http://www.w3.org/2000/svg">
  <defs
     id="defs1594" />
  <sodipodi:namedview
     id="namedview1592"
     pagecolor="#ffffff"
     bordercolor="#666666"
     borderopacity="1.0"
     inkscape:pageshadow="2"
     inkscape:pageopacity="0.0"
     inkscape:pagecheckerboard="0"
     showgrid="false"
     inkscape:zoom="17.583333"
     inkscape:cx="12.56872"
     inkscape:cy="24.028436"
     inkscape:window-width="1850"
     inkscape:window-height="1016"
     inkscape:window-x="70"
     inkscape:window-y="27"
     inkscape:window-maximized="1"
     inkscape:current-layer="svg1590" />
  <path
     d="M215.384-190.769h353.847v-200h200v-353.847q0-10.769-6.923-17.692t-17.692-6.923H215.384q-10.769 0-17.692 6.923t-6.923 17.692v529.232q0 10.769 6.923 17.692t17.692 6.923Zm0 30.769q-22.442 0-38.913-16.471Q160-192.942 160-215.384v-529.232q0-22.442 16.471-38.913Q192.942-800 215.384-800h529.232q22.442 0 38.913 16.471Q800-767.058 800-744.616v356.155L571.539-160H215.384Zm109.231-270.769v-30.77h150.77v30.77h-150.77Zm0-158.462V-620h310.77v30.769h-310.77ZM190.769-190.769v-578.462 578.462Z"
     id="path1588"
     style="fill:#e3f2fd;fill-opacity:1" />
</svg>
